<?xml version="1.0" encoding="UTF-8"?>
<!-- Generator: Adobe Illustrator 24.1.0, SVG Export Plug-In . SVG Version: 6.00 Build 0)  -->
<svg version="1.1" id="Laag_1" xmlns="http://www.w3.org/2000/svg" xmlns:xlink="http://www.w3.org/1999/xlink" x="0px" y="0px" viewBox="0 0 200.2 66.5" style="enable-background:new 0 0 200.2 66.5;" xml:space="preserve">
<style type="text/css">
	.st0{fill:#82A6A5;}
	.st1{opacity:0.3;fill:url(#SVGID_1_);enable-background:new    ;}
	.st2{opacity:0.3;fill:#6C8E8C;enable-background:new    ;}
	.st3{opacity:0.3;fill:url(#SVGID_2_);enable-background:new    ;}
	.st4{opacity:0.3;fill:url(#SVGID_3_);enable-background:new    ;}
	.st5{opacity:0.3;fill:url(#SVGID_4_);enable-background:new    ;}
	.st6{fill:#81A6A5;}
	.st7{fill:#ADDBDB;}
	.st8{opacity:0.7;fill:#ADDBDB;enable-background:new    ;}
	.st9{opacity:0.4;fill:#ADDBDB;enable-background:new    ;}
	.st10{opacity:0.4;fill:url(#SVGID_5_);enable-background:new    ;}
	.st11{opacity:0.4;fill:url(#SVGID_6_);enable-background:new    ;}
	.st12{opacity:0.4;fill:url(#SVGID_7_);enable-background:new    ;}
	.st13{opacity:0.4;fill:url(#SVGID_8_);enable-background:new    ;}
	.st14{opacity:0.4;fill:url(#SVGID_9_);enable-background:new    ;}
	.st15{opacity:0.4;fill:url(#SVGID_10_);enable-background:new    ;}
	.st16{opacity:0.4;fill:url(#SVGID_11_);enable-background:new    ;}
	.st17{opacity:0.4;fill:url(#SVGID_12_);enable-background:new    ;}
	.st18{opacity:0.4;fill:url(#SVGID_13_);enable-background:new    ;}
	.st19{opacity:0.4;fill:url(#SVGID_14_);enable-background:new    ;}
	.st20{opacity:0.4;fill:url(#SVGID_15_);enable-background:new    ;}
	.st21{opacity:0.4;fill:url(#SVGID_16_);enable-background:new    ;}
	.st22{opacity:0.4;fill:url(#SVGID_17_);enable-background:new    ;}
	.st23{opacity:0.4;fill:url(#SVGID_18_);enable-background:new    ;}
	.st24{opacity:0.4;fill:url(#SVGID_19_);enable-background:new    ;}
	.st25{opacity:0.4;fill:url(#SVGID_20_);enable-background:new    ;}
	.st26{opacity:0.4;fill:url(#SVGID_21_);enable-background:new    ;}
	.st27{opacity:0.4;fill:url(#SVGID_22_);enable-background:new    ;}
	.st28{opacity:0.4;fill:url(#SVGID_23_);enable-background:new    ;}
	.st29{opacity:0.4;fill:url(#SVGID_24_);enable-background:new    ;}
	.st30{opacity:0.4;fill:url(#SVGID_25_);enable-background:new    ;}
	.st31{opacity:0.4;fill:url(#SVGID_26_);enable-background:new    ;}
	.st32{opacity:0.4;fill:url(#SVGID_27_);enable-background:new    ;}
	.st33{opacity:0.4;fill:url(#SVGID_28_);enable-background:new    ;}
	.st34{opacity:0.4;fill:url(#SVGID_29_);enable-background:new    ;}
	.st35{opacity:0.4;fill:url(#SVGID_30_);enable-background:new    ;}
	.st36{opacity:0.4;fill:url(#SVGID_31_);enable-background:new    ;}
	.st37{opacity:0.4;fill:url(#SVGID_32_);enable-background:new    ;}
	.st38{opacity:0.4;fill:url(#SVGID_33_);enable-background:new    ;}
	.st39{opacity:0.4;fill:url(#SVGID_34_);enable-background:new    ;}
	.st40{opacity:0.4;fill:url(#SVGID_35_);enable-background:new    ;}
</style>
<g>
	<path class="st0" d="M0.1,36.7c1,2,4.5,2.8,6.8,3.5c3,0.8,5.9,1.7,8.9,2.5c1.7,0.5,4.5,1,5.7,2.3c0.4,1.7,0,3.6-0.3,5.1   c-0.6,3.3-1.7,12.4-1,15.6c0.4,1.5,3.3,0.8,4.9,0.2c2.9-0.5,5.4-2.1,7.6-3.5c2.1-1.3,4.2-2.6,6.3-3.9c2.2-1.4,4.4-2.8,7-3.8   c2.7-1,5.3-1.3,8.2-1.2c1.7,0.4,3.5,0.8,5.1,1.3C63.2,55.9,67.1,57,71,58c3.3,0.9,10.8,2,9.1-1.6c-1.1-2.4-5.3-8.8-7.8-11.7   c-1.5-1.7-3.6-3.5-4.2-5.6c-0.6-2.2,2.8-4,4.7-5.3c1.5-1,3.1-1.9,4.8-2.8c1.6-0.8,3.3-1.6,4.5-2.8c0.7-0.6,1.5-1.8,0.7-2.6   c-1.3-1.2-5.3-1-7.1-1.1c-3.5-0.3-6.9-0.6-10.4-0.9c-2.9-0.2-5.8,0-8.7-0.3c-6.1-0.6-11.6-8.3-16.1-11.3   C35.2,8.5,27.9,1.1,26.7,7.5c-0.6,3-0.8,5-0.9,7.5c-0.1,1.5,1.1,7.4,0.2,8.8c-1.4,2.3-5.4,3.3-8.3,4.3c-1.9,0.6-10.1,2.8-14.6,5.2   C0.9,34.4-0.4,35.6,0.1,36.7z"/>
	
	<radialGradient id="SVGID_1_" cx="-1176.6975" cy="-39.7281" r="48.9031" gradientTransform="matrix(-1.1088 -5.610000e-02 7.380000e-02 -0.8424 -1253.6814 -68.6572)" gradientUnits="userSpaceOnUse">
		<stop offset="0" style="stop-color:#77A0CB"/>
		<stop offset="0.8966" style="stop-color:#467AAE"/>
	</radialGradient>
	<path class="st1" d="M77.6,31.1c-1.7,0.9-3.3,1.7-4.8,2.8c-2,1.3-5.3,3.1-4.7,5.3c0.6,2.1,2.7,3.9,4.2,5.6   c2.6,2.9,6.8,9.3,7.8,11.7c0.2,0.4,0.2,0.7,0.2,1c-1-2.3-3.7-5.8-5.3-8c-2.7-3.7-4.4-6.3-7.9-8.8c-5-3.6-12.3-4.4-19.1-6.5   c4.9,0.3,11.6,2.3,16.5,2.2c5.1-0.2,7.3-3.4,11.6-5.3c1.8-0.8,6.3-3.2,6.6-5.2c0,0,0.1,0.1,0.1,0.1c0.8,0.8,0,1.9-0.7,2.6   C80.9,29.5,79.2,30.3,77.6,31.1z"/>
	<path class="st2" d="M3.1,33.3c4.6-2.4,12.8-4.5,14.6-5.2c2.8-1,6.9-2,8.3-4.3c0.9-1.4-0.3-7.3-0.2-8.8c0.1-2.5,0.4-4.5,0.9-7.4   c1.2-6.4,8.5,1,13.9,4.7c3.6,2.4,8.2,9.2,12.6,10.6c-2.7,1.4-4.8,5.5-6.6,7.8c-1.4,1.8-0.7,1.7,2.6,0.9c8.6-1.4,14.5-2.7,23.1-3.7   c2.1-0.3,4.2-0.4,6.3-0.7c1.1-0.1,2.1-0.2,3-0.8c0.3-0.2,0.6-0.4,0.8-0.6c0.2,0.1,0.3,0.2,0.4,0.3c0.8,0.8,0,1.9-0.7,2.6   c-1.2,1.1-2.9,2-4.5,2.8c-1.7,0.9-3.3,1.7-4.8,2.8c-2,1.3-5.3,3.1-4.7,5.3c0,0.1,0.1,0.2,0.1,0.3c-2.8-1.9-7-2.5-10.6-3.2   c-3.9-0.8-6.3-1.3-9.6-2.3c-1.8-0.5-2.8,0.1,2.5,2.8C51.7,37.5,62.6,44,65.6,47c2.8,2.8,6.2,5.7,8.7,8.6c0.9,1,3.5,3.9,5.6,2.7   c0.1,0,0.1-0.1,0.2-0.1c-1.2,1.5-6.4,0.7-9.1-0.1c-3.9-1.1-7.8-2.2-11.7-3.3c-1.7-0.5-3.4-0.9-5.1-1.3c-3-0.1-5.6,0.2-8.2,1.2   c-2,0.8-3.9,1.8-5.6,2.9c1.3-1,2.6-1.8,3.9-2.7c1.8-1.2,5.1-2.7,5.3-4.8c0.2-2.7-1.5-5.3-2.2-7.9c-0.7-2.4-1-4.9-2.2-7.2   c0-0.1-0.1-0.1-0.2-0.2c-1-1.3-1.1-0.8-2,0.4c-2.7,3.4-6.9,8-9.2,11.6c-3.3,5.1-6.8,10.3-10.5,15.3c-0.9,1.2-2.9,2.8-1.8,4.3   c0,0,0,0,0,0c-0.5-0.1-0.9-0.4-1-0.8c-0.8-3.2,0.3-12.3,1-15.6c0.3-1.4,0.8-3.4,0.3-5.1c-1.1-1.3-3.9-1.9-5.7-2.3   c-3-0.8-6-1.6-8.9-2.5c-2.3-0.7-5.8-1.5-6.8-3.5C-0.4,35.6,0.9,34.4,3.1,33.3z"/>
	
	<radialGradient id="SVGID_2_" cx="-1174.3317" cy="-44.8082" r="35.6168" fx="-1191.2898" fy="-58.9952" gradientTransform="matrix(-1.1088 -5.610000e-02 7.380000e-02 -0.8424 -1253.6814 -68.6572)" gradientUnits="userSpaceOnUse">
		<stop offset="0" style="stop-color:#77A0CB"/>
		<stop offset="0.8966" style="stop-color:#467AAE"/>
	</radialGradient>
	<path class="st3" d="M27.4,7.4c0,2.7-0.2,5.2-0.4,7.9c-0.1,1.8,1.3,8,2.6,9.6c0.8,1,2.5,1.6,3.8,2.2c3.8,1.8,7.7,3.9,11.2,6.2   c-3.9-1.4-7.9-2.9-11.8-4.2c-4.3-1.5-8.4-2.1-12.9-0.8c-4.5,1.3-9.2,2.3-13.6,3.8c-1.6,0.5-3,1.1-4.3,1.8c0.4-0.2,0.8-0.5,1.2-0.7   c4.6-2.4,12.8-4.5,14.6-5.2c2.8-1,6.9-2,8.3-4.3c0.9-1.4-0.3-7.3-0.2-8.8c0.1-2.5,0.4-4.5,0.9-7.4c0.3-1.3,0.8-2.1,1.5-2.4   C27.6,5.7,27.4,6.5,27.4,7.4z"/>
	
	<radialGradient id="SVGID_3_" cx="-1174.3306" cy="-44.9823" r="35.6111" fx="-1191.286" fy="-59.1671" gradientTransform="matrix(-1.1088 -5.610000e-02 7.380000e-02 -0.8424 -1253.6814 -68.6572)" gradientUnits="userSpaceOnUse">
		<stop offset="0" style="stop-color:#77A0CB"/>
		<stop offset="0.8966" style="stop-color:#467AAE"/>
	</radialGradient>
	<path class="st4" d="M44.3,54.9c1.8-1.2,5.1-2.7,5.3-4.8c0.2-2.7-1.5-5.3-2.2-7.9c-0.7-2.4-1-4.9-2.2-7.2c0,0,0,0,0,0   c0-0.1,0-0.2,0.1-0.3c0.7,1,0.9,2.4,1.3,3.4c0.9,2,1.6,4,2.6,6c1.4,3,3.4,5.8,6.9,7.7c3.8,2.1,8.4,3.1,12.8,4.3   c2.2,0.6,4.2,1.5,6.4,2.1c1.2,0.3,2.2,0.4,3.2,0.3c0.6,0.2,1.2,0.1,1.7-0.2c0,0,0,0,0,0c0,0,0,0,0.1,0c-1.3,1.4-6.4,0.6-9-0.2   c-3.9-1.1-7.8-2.2-11.7-3.3c-1.7-0.5-3.4-0.9-5.1-1.3c-3-0.1-5.6,0.2-8.2,1.2c-2,0.8-3.9,1.8-5.6,2.9C41.6,56.6,43,55.7,44.3,54.9z   "/>
	
	<radialGradient id="SVGID_4_" cx="-1174.3298" cy="-44.9823" r="35.6109" fx="-1191.2852" fy="-59.167" gradientTransform="matrix(-1.1088 -5.610000e-02 7.380000e-02 -0.8424 -1253.6814 -68.6572)" gradientUnits="userSpaceOnUse">
		<stop offset="0" style="stop-color:#77A0CB"/>
		<stop offset="0.8966" style="stop-color:#467AAE"/>
	</radialGradient>
	<path class="st5" d="M3.1,33.3c1.1-0.6,2.4-1.1,3.8-1.7c-1.2,0.7-2.3,1.2-3.4,1.9c-0.7,0.5-1.5,1.4-2,2.1c-0.8,1-0.3,1.7,0.9,2.3   c2.5,1.3,6.3,2,9.2,2.5c3.2,0.5,6.7,1,10,0.5c3.6-0.5,6.9-1.5,10.2-2.8c2.2-0.8,4.4-1.6,6.7-2.3c0.3-0.1,1.5-0.5,2.8-0.8   c-4.1,2-7.9,4.2-11.8,6.5c-2,1.2-4.1,2.2-5.3,3.8c-0.8,1.1-1,2.5-1.2,3.7c-0.7,4.1-1.5,8.1-2.4,12.2c-0.2,1-0.5,2-0.5,3.1   c-0.3-3.9,0.6-11.3,1.2-14.2c0.3-1.4,0.8-3.4,0.3-5.1c-1.1-1.3-3.9-1.9-5.7-2.3c-3-0.8-6-1.6-8.9-2.5c-2.3-0.7-5.8-1.5-6.8-3.5   C-0.4,35.6,0.9,34.4,3.1,33.3z"/>
	<path class="st6" d="M34.8,29c-2.6-1.3-5.6-2.1-8.6-2.6c-1.3-0.2-2.4-0.1-3.6,0c1.5-0.6,2.8-1.5,3.5-2.6c0.9-1.4-0.3-7.3-0.2-8.8   c0.1-2.5,0.4-4.5,0.9-7.4c0.3-1.6,1-2.4,2-2.5c2,1.2,3.1,4,4,5.5c1.3,2.1,2.6,4.1,3.9,6.1c1.4,2.3,3.6,8.6,4.7,11   c0.8,1.6,2.1,3.4,2.5,5.1C44,33.6,37.2,30.3,34.8,29z"/>
	<path class="st6" d="M0.4,35.2c0.1,0.2,0.4,0.3,0.6,0.4c1,0.4,2.1,0.6,3.2,0.5c2.4-0.2,4.9-0.3,7.3-0.5c4.9-0.5,9.8-1,14.8-1.4   c2.6-0.2,5.2-0.5,7.8-0.8c1.7-0.2,5.8-0.1,6.7-0.1c4.2-0.2,1.6,1,0.3,1.7c-1.2,0.6-4.6,1.5-5.8,2.2c-2.5,1.3-5.1,2.6-7.6,4   c-2.4,1.3-4.5,2.7-5.9,4.4c0-0.2-0.1-0.5-0.1-0.7c-1.1-1.3-3.9-1.9-5.7-2.3c-3-0.8-6-1.6-8.9-2.5c-2.3-0.7-5.8-1.5-6.8-3.5   C-0.1,36.2,0,35.7,0.4,35.2z"/>
	<path class="st7" d="M35.2,14.4c1.1,2,5.3,10.4,6.4,12.3c1,1.8,3.2,5.3,3.9,5.2c2.2-0.1,4.7-0.9,6.4-1.3c2.8-0.7,5.6-1.2,8.5-1.7   c5.1-0.8,10.2-1.5,15.3-2c0.1,0,0.1,0.1,0,0.1c-5.1,0.5-10.3,1.3-15.2,2.4C59,29.8,45,33.2,44.4,32.9c-1.5-1.7-2.2-3.5-3.2-5.4   C40.2,25.3,35.2,14.4,35.2,14.4z"/>
	<path class="st8" d="M73.4,54.5c0,0-8.5-10.2-16.5-15.2c-7.9-5-12.1-6.1-12.1-6.1S54.6,39,59,42.4C63.5,45.8,73.4,54.5,73.4,54.5z"/>
	<path class="st9" d="M43.8,34c0,0-9.1,9.8-11.4,13.6c-2.3,3.8-10,15.2-10,15.2S33.2,49,35.7,45.5C38.3,42,43.8,34,43.8,34z"/>

		<g>
			<linearGradient id="SVGID_5_" gradientUnits="userSpaceOnUse" x1="-1326.1021" y1="318.6291" x2="-1325.3601" y2="318.6291" gradientTransform="matrix(-0.9032 -0.4293 0.3781 -0.7954 -1265.62 -292.3724)">
				<stop offset="0" style="stop-color:#77A0CB"/>
				<stop offset="0.8966" style="stop-color:#467AAE"/>
			</linearGradient>
			<path class="st10" d="M51.9,23.2c-0.1,0.2,0,0.4,0.2,0.4s0.4,0,0.5-0.2s0-0.4-0.2-0.4C52.3,23,52,23,51.9,23.2z"/>
			
			<linearGradient id="SVGID_6_" gradientUnits="userSpaceOnUse" x1="-1327.1324" y1="330.7389" x2="-1326.3933" y2="330.7389" gradientTransform="matrix(-0.8952 -0.4457 0.3925 -0.7884 -1266.842 -305.7381)">
				<stop offset="0" style="stop-color:#77A0CB"/>
				<stop offset="0.8966" style="stop-color:#467AAE"/>
			</linearGradient>
			<path class="st11" d="M50.3,24.7c-0.1,0.2,0,0.4,0.2,0.4s0.4,0,0.5-0.2c0.1-0.2,0-0.4-0.2-0.4C50.7,24.5,50.5,24.6,50.3,24.7z"/>
			
			<linearGradient id="SVGID_7_" gradientUnits="userSpaceOnUse" x1="-1319.0802" y1="288.9698" x2="-1318.3342" y2="288.9698" gradientTransform="matrix(-0.9163 -0.4005 0.3527 -0.807 -1260.6941 -268.6456)">
				<stop offset="0" style="stop-color:#77A0CB"/>
				<stop offset="0.8966" style="stop-color:#467AAE"/>
			</linearGradient>
			<path class="st12" d="M49.2,26.2c-0.1,0.2,0,0.4,0.2,0.4s0.4,0,0.5-0.2s0-0.4-0.2-0.4C49.5,25.9,49.3,26,49.2,26.2z"/>
			
			<linearGradient id="SVGID_8_" gradientUnits="userSpaceOnUse" x1="-1304.9943" y1="226.779" x2="-1304.2393" y2="226.779" gradientTransform="matrix(-0.9436 -0.331 0.2915 -0.831 -1248.6193 -215.5304)">
				<stop offset="0" style="stop-color:#77A0CB"/>
				<stop offset="0.8966" style="stop-color:#467AAE"/>
			</linearGradient>
			<path class="st13" d="M48.2,27.8c-0.1,0.2,0,0.4,0.2,0.4s0.4,0,0.5-0.2c0.1-0.2,0-0.4-0.2-0.4C48.5,27.5,48.2,27.6,48.2,27.8z"/>
			
			<linearGradient id="SVGID_9_" gradientUnits="userSpaceOnUse" x1="-1304.3506" y1="224.322" x2="-1303.598" y2="224.322" gradientTransform="matrix(-0.9436 -0.331 0.2915 -0.831 -1248.6193 -215.5304)">
				<stop offset="0" style="stop-color:#77A0CB"/>
				<stop offset="0.8966" style="stop-color:#467AAE"/>
			</linearGradient>
			<path class="st14" d="M46.8,29.6c-0.1,0.2,0,0.4,0.2,0.4s0.4,0,0.5-0.2c0.1-0.2,0-0.4-0.2-0.4C47.1,29.3,46.9,29.4,46.8,29.6z"/>

			<linearGradient id="SVGID_10_" gradientUnits="userSpaceOnUse" x1="-1303.7543" y1="221.88" x2="-1303.0005" y2="221.88" gradientTransform="matrix(-0.9436 -0.331 0.2915 -0.831 -1248.6193 -215.5304)">
				<stop offset="0" style="stop-color:#77A0CB"/>
				<stop offset="0.8966" style="stop-color:#467AAE"/>
			</linearGradient>
			<path class="st15" d="M45.6,31.4c-0.1,0.2,0,0.4,0.2,0.4s0.4,0,0.5-0.2c0.1-0.2,0-0.4-0.2-0.4C45.9,31.1,45.6,31.2,45.6,31.4z"/>
		</g>
		<g>
			<linearGradient id="SVGID_11_" gradientUnits="userSpaceOnUse" x1="-479.1511" y1="-347.9877" x2="-478.5229" y2="-347.9877" gradientTransform="matrix(-0.4467 0.8947 -0.7879 -0.3934 -461.2953 317.4608)">
				<stop offset="0" style="stop-color:#77A0CB"/>
				<stop offset="0.8966" style="stop-color:#467AAE"/>
			</linearGradient>
			<path class="st16" d="M26.6,26.2c0.2,0.1,0.5,0,0.5-0.1c0.1-0.1,0-0.3-0.2-0.4s-0.5,0-0.5,0.1C26.3,25.9,26.4,26.1,26.6,26.2z"/>
			
			<linearGradient id="SVGID_12_" gradientUnits="userSpaceOnUse" x1="-492.5045" y1="-355.1728" x2="-491.8727" y2="-355.1728" gradientTransform="matrix(-0.4629 0.8864 -0.7806 -0.4077 -474.5129 318.8937)">
				<stop offset="0" style="stop-color:#77A0CB"/>
				<stop offset="0.8966" style="stop-color:#467AAE"/>
			</linearGradient>
			<path class="st17" d="M30.4,27.7c0.2,0.1,0.5,0,0.6-0.1c0.1-0.1,0-0.3-0.2-0.4c-0.2-0.1-0.5,0-0.6,0.1     C30.1,27.4,30.2,27.6,30.4,27.7z"/>
			
			<linearGradient id="SVGID_13_" gradientUnits="userSpaceOnUse" x1="-456.6266" y1="-350.7733" x2="-456.0022" y2="-350.7733" gradientTransform="matrix(-0.4182 0.9084 -0.8 -0.3683 -437.7427 314.0167)">
				<stop offset="0" style="stop-color:#77A0CB"/>
				<stop offset="0.8966" style="stop-color:#467AAE"/>
			</linearGradient>
			<path class="st18" d="M33.5,29c0.2,0.1,0.5,0,0.5-0.1s0-0.3-0.2-0.4c-0.2-0.1-0.5,0-0.5,0.1C33.2,28.7,33.3,28.9,33.5,29z"/>
			
			<linearGradient id="SVGID_14_" gradientUnits="userSpaceOnUse" x1="-401.8461" y1="-339.6795" x2="-401.2327" y2="-339.6795" gradientTransform="matrix(-0.3492 0.937 -0.8252 -0.3075 -383.8593 301.9729)">
				<stop offset="0" style="stop-color:#77A0CB"/>
				<stop offset="0.8966" style="stop-color:#467AAE"/>
			</linearGradient>
			<path class="st19" d="M36.5,30.5c0.2,0.1,0.5,0,0.5-0.2c0.1-0.1,0-0.3-0.3-0.4c-0.2-0.1-0.5,0-0.5,0.2     C36.2,30.2,36.3,30.4,36.5,30.5z"/>
			
			<linearGradient id="SVGID_15_" gradientUnits="userSpaceOnUse" x1="-401.6307" y1="-343.1664" x2="-401.0173" y2="-343.1664" gradientTransform="matrix(-0.3492 0.937 -0.8252 -0.3075 -383.8593 301.9729)">
				<stop offset="0" style="stop-color:#77A0CB"/>
				<stop offset="0.8966" style="stop-color:#467AAE"/>
			</linearGradient>
			<path class="st20" d="M39.3,31.7c0.2,0.1,0.5,0,0.5-0.2s0-0.3-0.3-0.4c-0.2-0.1-0.5,0-0.5,0.2C39,31.5,39.1,31.7,39.3,31.7z"/>
			
			<linearGradient id="SVGID_16_" gradientUnits="userSpaceOnUse" x1="-401.5235" y1="-346.4944" x2="-400.9106" y2="-346.4944" gradientTransform="matrix(-0.3492 0.937 -0.8252 -0.3075 -383.8593 301.9729)">
				<stop offset="0" style="stop-color:#77A0CB"/>
				<stop offset="0.8966" style="stop-color:#467AAE"/>
			</linearGradient>
			<path class="st21" d="M42,32.8c0.2,0.1,0.5,0,0.5-0.2s0-0.3-0.3-0.4c-0.2-0.1-0.5,0-0.5,0.2C41.7,32.6,41.8,32.8,42,32.8z"/>
		</g>
		<g>
			
			<linearGradient id="SVGID_17_" gradientUnits="userSpaceOnUse" x1="96.4644" y1="213.6781" x2="97.162" y2="213.6781" gradientTransform="matrix(0.6048 0.7964 -0.7014 0.5326 116.8858 -148.1536)">
				<stop offset="0" style="stop-color:#77A0CB"/>
				<stop offset="0.8966" style="stop-color:#467AAE"/>
			</linearGradient>
			<path class="st22" d="M25.8,43c0.2-0.1,0.3-0.3,0.1-0.5s-0.4-0.2-0.6,0c-0.2,0.1-0.3,0.3-0.1,0.5C25.3,43.1,25.6,43.1,25.8,43z"/>
			
			<linearGradient id="SVGID_18_" gradientUnits="userSpaceOnUse" x1="93.6014" y1="193.9124" x2="94.297" y2="193.9124" gradientTransform="matrix(0.5902 0.8073 -0.7109 0.5198 111.5814 -135.9268)">
				<stop offset="0" style="stop-color:#77A0CB"/>
				<stop offset="0.8966" style="stop-color:#467AAE"/>
			</linearGradient>
			<path class="st23" d="M29.4,41c0.2-0.1,0.3-0.3,0.1-0.5c-0.1-0.1-0.4-0.2-0.6,0c-0.2,0.1-0.3,0.3-0.1,0.5     C29,41.1,29.2,41.1,29.4,41z"/>
			
			<linearGradient id="SVGID_19_" gradientUnits="userSpaceOnUse" x1="104.5891" y1="230.5533" x2="105.295" y2="230.5533" gradientTransform="matrix(0.6297 0.7769 -0.6842 0.5545 123.894 -170.3244)">
				<stop offset="0" style="stop-color:#77A0CB"/>
				<stop offset="0.8966" style="stop-color:#467AAE"/>
			</linearGradient>
			<path class="st24" d="M32.5,39.3c0.2-0.1,0.2-0.3,0.1-0.5c-0.1-0.1-0.4-0.1-0.6,0c-0.2,0.1-0.2,0.3-0.1,0.5     C32,39.4,32.3,39.4,32.5,39.3z"/>
			
			<linearGradient id="SVGID_20_" gradientUnits="userSpaceOnUse" x1="120.0613" y1="288.8926" x2="120.7805" y2="288.8926" gradientTransform="matrix(0.6859 0.7277 -0.6409 0.6041 137.8553 -224.6246)">
				<stop offset="0" style="stop-color:#77A0CB"/>
				<stop offset="0.8966" style="stop-color:#467AAE"/>
			</linearGradient>
			<path class="st25" d="M35.6,37.8c0.2-0.1,0.2-0.3,0-0.5c-0.2-0.1-0.4-0.1-0.6,0c-0.2,0.1-0.2,0.3,0,0.5     C35.1,37.9,35.4,37.9,35.6,37.8z"/>
			
			<linearGradient id="SVGID_21_" gradientUnits="userSpaceOnUse" x1="121.0856" y1="285.1874" x2="121.8063" y2="285.1874" gradientTransform="matrix(0.6859 0.7277 -0.6409 0.6041 137.8553 -224.6246)">
				<stop offset="0" style="stop-color:#77A0CB"/>
				<stop offset="0.8966" style="stop-color:#467AAE"/>
			</linearGradient>
			<path class="st26" d="M38.7,36.3c0.2-0.1,0.2-0.3,0-0.5c-0.2-0.1-0.4-0.1-0.6,0c-0.2,0.1-0.2,0.3,0,0.5     C38.2,36.4,38.5,36.4,38.7,36.3z"/>
			
			<linearGradient id="SVGID_22_" gradientUnits="userSpaceOnUse" x1="122.1468" y1="281.8105" x2="122.8668" y2="281.8105" gradientTransform="matrix(0.6859 0.7277 -0.6409 0.6041 137.8553 -224.6246)">
				<stop offset="0" style="stop-color:#77A0CB"/>
				<stop offset="0.8966" style="stop-color:#467AAE"/>
			</linearGradient>
			<path class="st27" d="M41.5,35c0.2-0.1,0.2-0.3,0-0.5s-0.4-0.1-0.6,0c-0.2,0.1-0.2,0.3,0,0.5C41.1,35.1,41.4,35.1,41.5,35z"/>
		</g>
		<g>
			<linearGradient id="SVGID_23_" gradientUnits="userSpaceOnUse" x1="-147.2763" y1="1087.7496" x2="-146.4167" y2="1087.7496" gradientTransform="matrix(0.9528 -0.3035 0.2673 0.8391 -100.3726 -906.9794)">
				<stop offset="0" style="stop-color:#77A0CB"/>
				<stop offset="0.8966" style="stop-color:#467AAE"/>
			</linearGradient>
			<path class="st28" d="M50.9,50.2c-0.1-0.2-0.3-0.3-0.6-0.3C50.1,50,50,50.2,50,50.4c0.1,0.2,0.3,0.3,0.6,0.3     C50.8,50.6,51,50.4,50.9,50.2z"/>
			
			<linearGradient id="SVGID_24_" gradientUnits="userSpaceOnUse" x1="-147.6543" y1="1090.7479" x2="-146.7975" y2="1090.7479" gradientTransform="matrix(0.9528 -0.3035 0.2673 0.8391 -100.3726 -906.9794)">
				<stop offset="0" style="stop-color:#77A0CB"/>
				<stop offset="0.8966" style="stop-color:#467AAE"/>
			</linearGradient>
			<path class="st29" d="M51.3,52.8c-0.1-0.2-0.3-0.3-0.6-0.3c-0.2,0.1-0.3,0.3-0.3,0.5c0.1,0.2,0.3,0.3,0.6,0.3     C51.3,53.3,51.4,53,51.3,52.8z"/>
			
			<linearGradient id="SVGID_25_" gradientUnits="userSpaceOnUse" x1="-138.2197" y1="1074.3914" x2="-137.3597" y2="1074.3914" gradientTransform="matrix(0.9582 -0.2861 0.2519 0.8439 -89.113 -899.0743)">
				<stop offset="0" style="stop-color:#77A0CB"/>
				<stop offset="0.8966" style="stop-color:#467AAE"/>
			</linearGradient>
			<path class="st30" d="M49.9,46.9c-0.1-0.2-0.3-0.3-0.6-0.3c-0.2,0-0.4,0.3-0.3,0.5c0.1,0.2,0.3,0.3,0.6,0.3     C49.9,47.3,50,47.1,49.9,46.9z"/>
			
			<linearGradient id="SVGID_26_" gradientUnits="userSpaceOnUse" x1="-165.1202" y1="1097.165" x2="-164.2658" y2="1097.165" gradientTransform="matrix(0.9428 -0.3335 0.2937 0.8303 -118.5884 -921.8107)">
				<stop offset="0" style="stop-color:#77A0CB"/>
				<stop offset="0.8966" style="stop-color:#467AAE"/>
			</linearGradient>
			<path class="st31" d="M48.8,44c-0.1-0.2-0.3-0.3-0.6-0.2C48,43.8,47.9,44,48,44.2s0.3,0.3,0.6,0.2C48.8,44.4,48.9,44.2,48.8,44z"/>
			
			<linearGradient id="SVGID_27_" gradientUnits="userSpaceOnUse" x1="-206.8256" y1="1129.2385" x2="-205.9804" y2="1129.2385" gradientTransform="matrix(0.9152 -0.4029 0.3548 0.806 -164.2998 -952.1406)">
				<stop offset="0" style="stop-color:#77A0CB"/>
				<stop offset="0.8966" style="stop-color:#467AAE"/>
			</linearGradient>
			<path class="st32" d="M47.8,41c-0.1-0.2-0.4-0.3-0.6-0.2c-0.2,0.1-0.3,0.3-0.2,0.5c0.1,0.2,0.4,0.3,0.6,0.2     C47.9,41.5,48,41.2,47.8,41z"/>
			
			<linearGradient id="SVGID_28_" gradientUnits="userSpaceOnUse" x1="-206.4622" y1="1125.8206" x2="-205.6165" y2="1125.8206" gradientTransform="matrix(0.9152 -0.4029 0.3548 0.806 -164.2998 -952.1406)">
				<stop offset="0" style="stop-color:#77A0CB"/>
				<stop offset="0.8966" style="stop-color:#467AAE"/>
			</linearGradient>
			<path class="st33" d="M47,38.2c-0.1-0.2-0.4-0.3-0.6-0.2c-0.2,0.1-0.3,0.3-0.2,0.5c0.1,0.2,0.4,0.3,0.6,0.2     C47,38.5,47.1,38.3,47,38.2z"/>
			
			<linearGradient id="SVGID_29_" gradientUnits="userSpaceOnUse" x1="-205.9798" y1="1122.7454" x2="-205.1349" y2="1122.7454" gradientTransform="matrix(0.9152 -0.4029 0.3548 0.806 -164.2998 -952.1406)">
				<stop offset="0" style="stop-color:#77A0CB"/>
				<stop offset="0.8966" style="stop-color:#467AAE"/>
			</linearGradient>
			<path class="st34" d="M46.3,35.5c-0.1-0.2-0.4-0.3-0.6-0.2c-0.2,0.1-0.3,0.3-0.2,0.5c0.1,0.2,0.4,0.3,0.6,0.2     C46.3,35.9,46.4,35.7,46.3,35.5z"/>
		</g>
	<g>
		<linearGradient id="SVGID_30_" gradientUnits="userSpaceOnUse" x1="-841.0831" y1="1182.9733" x2="-840.4067" y2="1182.9733" gradientTransform="matrix(0.2259 -0.9742 0.8579 0.1989 -758.7675 -1016.0847)">
			<stop offset="0" style="stop-color:#77A0CB"/>
			<stop offset="0.8966" style="stop-color:#467AAE"/>
		</linearGradient>
		<path class="st35" d="M66.3,37.9c-0.3,0-0.5,0.1-0.6,0.2c-0.1,0.2,0.1,0.4,0.4,0.4s0.5-0.1,0.6-0.2C66.7,38.2,66.5,38,66.3,37.9z"/>

		<linearGradient id="SVGID_31_" gradientUnits="userSpaceOnUse" x1="-828.9948" y1="1183.9536" x2="-828.3143" y2="1183.9536" gradientTransform="matrix(0.2435 -0.9699 0.8542 0.2145 -747.5964 -1020.4545)">
			<stop offset="0" style="stop-color:#77A0CB"/>
			<stop offset="0.8966" style="stop-color:#467AAE"/>
		</linearGradient>
		<path class="st36" d="M62.1,36.9c-0.3,0-0.5,0.1-0.6,0.2c-0.1,0.2,0.1,0.4,0.4,0.4c0.3,0,0.5-0.1,0.6-0.2    C62.5,37.1,62.3,37,62.1,36.9z"/>
			
		<linearGradient id="SVGID_32_" gradientUnits="userSpaceOnUse" x1="-859.8991" y1="1165.9196" x2="-859.2256" y2="1165.9196" gradientTransform="matrix(0.1949 -0.9808 0.8638 0.1717 -781.5281 -1006.799)">
			<stop offset="0" style="stop-color:#77A0CB"/>
			<stop offset="0.8966" style="stop-color:#467AAE"/>
		</linearGradient>
		<path class="st37" d="M58.2,36.1c-0.3,0-0.5,0.1-0.6,0.3c0,0.2,0.1,0.4,0.4,0.4s0.5-0.1,0.6-0.3C58.6,36.3,58.4,36.2,58.2,36.1z"/>
			
		<linearGradient id="SVGID_33_" gradientUnits="userSpaceOnUse" x1="-904.2804" y1="1138.1599" x2="-903.6123" y2="1138.1599" gradientTransform="matrix(0.1212 -0.9926 0.8742 0.1067 -831.1108 -983.1313)">
			<stop offset="0" style="stop-color:#77A0CB"/>
			<stop offset="0.8966" style="stop-color:#467AAE"/>
		</linearGradient>
		<path class="st38" d="M54.4,35.2c-0.3,0-0.5,0.1-0.5,0.3s0.2,0.3,0.4,0.4c0.3,0,0.5-0.1,0.5-0.3C54.8,35.4,54.6,35.3,54.4,35.2z"/>
			
		<linearGradient id="SVGID_34_" gradientUnits="userSpaceOnUse" x1="-903.8319" y1="1133.8306" x2="-903.1638" y2="1133.8306" gradientTransform="matrix(0.1212 -0.9926 0.8742 0.1067 -831.1108 -983.1313)">
			<stop offset="0" style="stop-color:#77A0CB"/>
			<stop offset="0.8966" style="stop-color:#467AAE"/>
		</linearGradient>
		<path class="st39" d="M50.6,34.3c-0.3,0-0.5,0.1-0.5,0.3c0,0.2,0.2,0.3,0.4,0.4c0.3,0,0.5-0.1,0.5-0.3    C51.1,34.5,50.9,34.4,50.6,34.3z"/>
			
		<linearGradient id="SVGID_35_" gradientUnits="userSpaceOnUse" x1="-903.304" y1="1129.9135" x2="-902.6359" y2="1129.9135" gradientTransform="matrix(0.1212 -0.9926 0.8742 0.1067 -831.1108 -983.1313)">
			<stop offset="0" style="stop-color:#77A0CB"/>
			<stop offset="0.8966" style="stop-color:#467AAE"/>
		</linearGradient>
		<path class="st40" d="M47.3,33.4c-0.3,0-0.5,0.1-0.5,0.3s0.2,0.3,0.4,0.4c0.3,0,0.5-0.1,0.5-0.3C47.7,33.6,47.5,33.4,47.3,33.4z"/>
	</g>

</g>
<g>
	<path d="M57.3,5.4c0-1.3-0.1-1.6-0.5-1.6c-0.3,0-0.6,0.1-0.9,0.1c-0.7,0-1-0.7-1-1.3c0-0.9,0.5-1.5,2.3-1.5c0.9,0,1.7,0.2,2.7,0.2   c1.7,0,2.9-0.2,4-0.2c1,0,2,0.1,2.9,0.6c1.1,0.6,1.7,1.6,1.7,2.8c0,1.5-1.1,2.6-2.5,2.8v0c1.9,0.5,3.1,1.6,3.1,3.5   c0,3.3-3,4.1-5.4,4.1c-1.1,0-2.1-0.2-3.7-0.2c-1.2,0-1.9,0.2-2.8,0.2c-1.7,0-2.2-0.7-2.2-1.5c0-0.6,0.4-1.3,1-1.3   c0.3,0,0.6,0.1,0.9,0.1c0.4,0,0.5-0.4,0.5-1.6C57.2,10.7,57.2,5.4,57.3,5.4z M61,5.9c0,0.5,0.1,0.5,1,0.5c1.7,0,2.6-0.4,2.6-1.5   c0-1.1-1.3-1.3-2.2-1.3C61,3.6,61,3.9,61,4.8V5.9z M61,11.2c0,0.8,0.4,1.2,2,1.2c1,0,2.1-0.5,2.1-1.6c0-1.3-1.5-1.8-3.1-1.8   c-1,0-1,0-1,0.9C60.9,9.8,60.9,11.2,61,11.2z"/>
	<path d="M75.6,11.2c0,1.2,0.2,1.4,0.3,1.4c0.1,0,0.2,0,0.3-0.1c0.1,0,0.2-0.1,0.4-0.1c0.7,0,0.9,0.5,0.9,1.1c0,0.8-0.3,1.4-1.2,1.4   c-0.9,0-1.7-0.2-2.5-0.2c-0.8,0-1.5,0.2-2.2,0.2c-0.8,0-1.2-0.6-1.2-1.4c0-0.6,0.2-1.1,0.9-1.1c0.1,0,0.2,0,0.4,0.1   c0.1,0,0.2,0.1,0.3,0.1c0.3,0,0.4-0.4,0.4-1.4V4.9c0-1,0-1.4-0.4-1.4c-0.2,0-0.4,0.1-0.7,0.1c-0.7,0-0.9-0.5-0.9-1.1   c0-0.8,0.3-1.4,1.2-1.4c0.5,0,1.1,0.2,1.6,0.2c0.6,0,1.2-0.2,1.8-0.2c0.5,0,0.7,0.3,0.7,1.1V11.2z"/>
	<path d="M82.9,7c0,0.9-0.9,1.3-1.7,1.3c-1,0-1.8-0.7-1.8-1.7c0-1.3,1.3-2.4,4.4-2.4c1,0,2.4,0.1,3.2,0.6c1.1,0.6,1.3,1.6,1.3,3.1   v3.8c0,0.8,0.1,0.9,0.3,0.9c0.2,0,0.3,0,0.5,0c0.6,0,1,0.5,1,1.1c0,1.1-1.1,1.5-2.1,1.5c-0.9,0-1.9-0.3-2.3-1.3   c-0.9,0.9-2.2,1.3-3.4,1.3c-1.8,0-3.6-1-3.6-3c0-4.7,6.2-2.3,6.2-4.9c0-0.8-0.7-1.1-1.4-1.1c-0.3,0-0.7,0.1-0.7,0.5V7z M84.9,10.4   C84.4,11,82,10.7,82,11.8c0,0.7,0.6,0.9,1.1,0.9c1.2,0,1.8-0.7,1.8-1.9V10.4z"/>
	<path d="M99.5,8.7c0-1.1-0.5-1.6-1.2-1.6c-0.7,0-1.9,0.4-1.9,2.2v1.9c0,1.2,0.1,1.4,0.2,1.4c0.1,0,0.1,0,0.2-0.1s0.2-0.1,0.3-0.1   c0.3,0,0.6,0.3,0.6,1.1c0,0.8-0.2,1.4-0.8,1.4c-0.9,0-1.7-0.2-2.5-0.2c-0.8,0-1.5,0.2-2.2,0.2c-0.5,0-0.8-0.6-0.8-1.4   c0-0.6,0.2-1.1,0.9-1.1c0.1,0,0.2,0,0.4,0.1c0.1,0,0.2,0.1,0.3,0.1c0.3,0,0.4-0.2,0.4-1.4V8.3c0-1.1-0.1-1.4-0.4-1.4   c-0.2,0-0.4,0.1-0.7,0.1c-0.7,0-0.9-0.5-0.9-1.1c0-0.8,0.3-1.4,0.8-1.4c0.5,0,1,0.2,1.6,0.2c0.6,0,0.9-0.2,1.4-0.2   c0.6,0,0.6,0.2,0.6,1v0.5h0c0.9-1.1,2-1.8,3.5-1.8c1.8,0,3.4,1.3,3.4,3.6v3.4c0,1.2,0.1,1.4,0.4,1.4c0.1,0,0.2,0,0.3-0.1   c0.1,0,0.2-0.1,0.4-0.1c0.7,0,0.9,0.5,0.9,1.1c0,0.8-0.3,1.4-1.2,1.4c-0.9,0-1.7-0.2-2.5-0.2c-0.8,0-1.2,0.2-1.9,0.2   c-0.4,0-0.8-0.3-0.8-1.4c0-0.9,0.3-1.1,0.6-1.1c0.1,0,0.2,0,0.2,0.1c0.1,0,0.2,0.1,0.2,0.1c0.2,0,0.3-0.3,0.3-1.4   C99.5,11.2,99.5,8.7,99.5,8.7z"/>
	<path d="M112.2,7.6c0.6-0.5,0.6-0.6,0.6-0.8c0-0.2-0.2-0.3-0.3-0.5c-0.3-0.3-0.5-0.4-0.5-0.9c0-0.7,0.4-1,1-1   c0.7,0,1.4,0.2,2.2,0.2c0.8,0,1.6-0.2,2.5-0.2c0.8,0,1.2,0.6,1.2,1.4c0,0.6-0.2,1.1-0.9,1.1c-0.3,0-0.5-0.3-0.8-0.3   c-0.1,0-0.3,0.1-1.3,0.8c-0.8,0.5-0.9,0.8-0.9,1s0.1,0.2,0.1,0.3l0.2,0.4l1.3,2.1c0.7,1.2,0.9,1.3,1.2,1.3c0.2,0,0.5-0.1,0.7-0.2   c0.7,0,0.9,0.5,0.9,1.1c0,0.8-0.3,1.4-1.2,1.4c-0.6,0-1.2-0.2-1.8-0.2c-0.5,0-1.1,0.2-1.6,0.2c-1,0-1.5-0.6-1.5-1.1   c0-0.5,0.4-0.8,0.4-1.1c0-0.3-0.1-0.5-0.8-1.3l-0.5-0.6c-0.2-0.3-0.3-0.4-0.4-0.4s-0.5,0.3-1,0.7l-0.4,0.3v0.2c0,0.9,0.1,1,0.3,1   s0.5-0.1,0.7-0.2c0.7,0,0.9,0.5,0.9,1.1c0,0.8-0.3,1.4-1.2,1.4c-0.9,0-1.7-0.2-2.5-0.2c-1,0-1.8,0.2-2.5,0.2   c-0.5,0-0.9-0.6-0.9-1.4c0-0.6,0.2-1.1,0.9-1.1c0.1,0,0.2,0,0.3,0.1c0.1,0,0.2,0.1,0.3,0.1c0.3,0,0.4-0.3,0.4-1.4V4.9   c0-1-0.1-1.4-0.4-1.4c-0.2,0-0.4,0.1-0.7,0.1c-0.7,0-0.9-0.5-0.9-1.1c0-0.8,0.3-1.4,1.2-1.4c0.5,0,1.1,0.2,1.6,0.2   c0.6,0,1.2-0.2,1.8-0.2c0.4,0,0.5,0.2,0.5,1v6.8L112.2,7.6z"/>
	<path d="M124.3,10.3c-0.5,0-0.6,0.1-0.6,0.4c0,1.1,0.9,2,2.1,2c0.7,0,1.1-0.2,1.6-0.8c0.6-0.7,0.9-0.8,1.5-0.8   c0.8,0,1.4,0.5,1.4,1.3c0,1.5-2,2.8-4.6,2.8c-3.3,0-5.3-2.2-5.3-5.4c0-3.2,2-5.6,5.2-5.6c3.1,0,4.8,1.8,4.8,4.8   c0,0.9-0.1,1.3-1.3,1.3H124.3z M126.7,8.1c0.5,0,0.5-0.1,0.5-0.3c0-0.5-0.5-1.2-1.5-1.2c-1,0-1.9,0.8-1.9,1.3   c0,0.3,0.3,0.3,0.8,0.3H126.7z"/>
	<path d="M140,8.7c0-1.1-0.5-1.6-1.2-1.6c-0.7,0-1.9,0.4-1.9,2.2v1.9c0,1.2,0.1,1.4,0.2,1.4c0.1,0,0.1,0,0.2-0.1s0.2-0.1,0.3-0.1   c0.3,0,0.6,0.3,0.6,1.1c0,0.8-0.2,1.4-0.8,1.4c-0.9,0-1.7-0.2-2.5-0.2c-0.8,0-1.5,0.2-2.2,0.2c-0.5,0-0.8-0.6-0.8-1.4   c0-0.6,0.2-1.1,0.9-1.1c0.1,0,0.2,0,0.4,0.1c0.1,0,0.2,0.1,0.3,0.1c0.3,0,0.4-0.2,0.4-1.4V8.3c0-1.1-0.1-1.4-0.4-1.4   c-0.2,0-0.4,0.1-0.7,0.1c-0.7,0-0.9-0.5-0.9-1.1c0-0.8,0.3-1.4,0.8-1.4c0.5,0,1,0.2,1.6,0.2c0.6,0,0.9-0.2,1.4-0.2   c0.6,0,0.6,0.2,0.6,1v0.5h0c0.9-1.1,2-1.8,3.5-1.8c1.8,0,3.4,1.3,3.4,3.6v3.4c0,1.2,0.1,1.4,0.4,1.4c0.1,0,0.2,0,0.3-0.1   c0.1,0,0.2-0.1,0.4-0.1c0.7,0,0.9,0.5,0.9,1.1c0,0.8-0.3,1.4-1.2,1.4c-0.9,0-1.7-0.2-2.5-0.2c-0.8,0-1.2,0.2-1.9,0.2   c-0.4,0-0.8-0.3-0.8-1.4c0-0.9,0.3-1.1,0.6-1.1c0.1,0,0.2,0,0.2,0.1c0.1,0,0.2,0.1,0.2,0.1c0.2,0,0.3-0.3,0.3-1.4L140,8.7L140,8.7z   "/>
	<path d="M150.9,4.3c0.9,0,2,0.3,2.6,0.9c0-0.7,0.5-0.9,1.1-0.9c0.5,0,1,0.1,1,0.7c0,0.4-0.1,0.8-0.1,1.2c0,0.5,0.1,0.8,0.1,1.2   c0,0.4-0.3,0.8-1.2,0.8c-1.7,0-1.2-1.7-3.1-1.7c-0.7,0-1.1,0.3-1.1,0.8c0,0.4,0.2,0.7,1.3,0.9l0.9,0.2c2,0.4,3.8,0.8,3.8,3.3   c0,2.3-2.1,3.6-4.2,3.6c-1.2,0-2.4-0.4-3.3-1.2c0,0.6-0.4,1-1,1s-1.2-0.2-1.2-0.9c0-0.4,0.1-0.8,0.1-1.2c0-0.4-0.1-0.8-0.1-1.2   c0-0.6,0.6-0.9,1.2-0.9c0.7,0,1,0.2,1.4,0.8c0.2,0.3,0.5,0.7,0.8,0.9c0.5,0.2,1,0.3,1.5,0.3c1.1,0,1.4-0.5,1.4-0.9   c0-0.6-0.5-0.8-1.8-1c-2.1-0.3-4-0.7-4-3.3C147.1,5.6,148.7,4.3,150.9,4.3z"/>
	<path d="M159.1,2.8c0-1,0.2-1.4,1.8-1.4c1,0,1.2,0.3,1.2,1.1v1.3c0,0.8,0.2,0.8,0.5,0.8h1.7c0.7,0,1.2,0.3,1.2,1.1   c0,0.8-0.4,1.1-1.3,1.1h-1.6c-0.4,0-0.4,0.2-0.4,0.9v3.7c0,0.9,0.2,1.3,0.7,1.3c0.5,0,0.7-0.4,0.7-1.1v-0.7c0-0.7,0.4-1.1,1.1-1.1   c0.8,0,1.3,0.6,1.3,2.1c0,2.3-1.5,3.5-3.7,3.5c-0.9,0-1.9-0.2-2.6-0.9c-0.7-0.8-0.7-1.9-0.7-2.9v-4c0-0.5-0.1-0.6-0.5-0.6h-0.4   c-0.4,0-0.8-0.5-0.8-1.1c0-0.6,0.4-1.1,1-1.1c0.7,0,0.9-0.1,0.9-0.7V2.8z"/>
	<path d="M171.2,10.3c-0.5,0-0.6,0.1-0.6,0.4c0,1.1,0.9,2,2.1,2c0.7,0,1.1-0.2,1.6-0.8c0.6-0.7,0.9-0.8,1.5-0.8   c0.8,0,1.4,0.5,1.4,1.3c0,1.5-2,2.8-4.6,2.8c-3.3,0-5.3-2.2-5.3-5.4c0-3.2,2-5.6,5.2-5.6c3.1,0,4.8,1.8,4.8,4.8   c0,0.9-0.1,1.3-1.3,1.3H171.2z M173.6,8.1c0.5,0,0.5-0.1,0.5-0.3c0-0.5-0.5-1.2-1.5-1.2c-1,0-1.9,0.8-1.9,1.3   c0,0.3,0.3,0.3,0.8,0.3H173.6z"/>
	<path d="M180.7,8.3c0-1-0.1-1.4-0.4-1.4c-0.2,0-0.4,0.1-0.7,0.1c-0.7,0-0.9-0.5-0.9-1.1c0-0.8,0.3-1.4,1.2-1.4   c0.6,0,1.1,0.2,1.6,0.2c0.6,0,1.2-0.2,1.8-0.2c0.5,0,0.6,0.3,0.6,1v5.6c0,1.2,0.2,1.4,0.3,1.4c0.1,0,0.2,0,0.3-0.1   c0.1,0,0.2-0.1,0.4-0.1c0.7,0,0.9,0.5,0.9,1.1c0,0.8-0.3,1.4-1.2,1.4c-0.9,0-1.7-0.2-2.5-0.2c-0.8,0-1.5,0.2-2.2,0.2   c-0.8,0-1.2-0.6-1.2-1.4c0-0.6,0.2-1.1,0.9-1.1c0.1,0,0.2,0,0.4,0.1c0.1,0,0.2,0.1,0.3,0.1c0.3,0,0.4-0.4,0.4-1.4L180.7,8.3   L180.7,8.3z M184.1,1.9c0,1-0.8,1.9-1.9,1.9s-1.9-0.8-1.9-1.9s0.8-1.9,1.9-1.9S184.1,0.8,184.1,1.9z"/>
	<path d="M195.2,8.7c0-1.1-0.5-1.6-1.2-1.6c-0.7,0-1.9,0.4-1.9,2.2v1.9c0,1.2,0.1,1.4,0.2,1.4c0.1,0,0.1,0,0.2-0.1s0.2-0.1,0.3-0.1   c0.3,0,0.6,0.3,0.6,1.1c0,0.8-0.2,1.4-0.8,1.4c-0.9,0-1.7-0.2-2.5-0.2c-0.8,0-1.5,0.2-2.2,0.2c-0.5,0-0.8-0.6-0.8-1.4   c0-0.6,0.2-1.1,0.9-1.1c0.1,0,0.2,0,0.4,0.1c0.1,0,0.2,0.1,0.3,0.1c0.3,0,0.4-0.2,0.4-1.4V8.3c0-1.1-0.1-1.4-0.4-1.4   c-0.2,0-0.4,0.1-0.7,0.1c-0.7,0-0.9-0.5-0.9-1.1c0-0.8,0.3-1.4,0.8-1.4c0.5,0,1,0.2,1.6,0.2c0.6,0,0.9-0.2,1.4-0.2   c0.6,0,0.6,0.2,0.6,1v0.5h0c0.9-1.1,2-1.8,3.5-1.8c1.8,0,3.4,1.3,3.4,3.6v3.4c0,1.2,0.1,1.4,0.4,1.4c0.1,0,0.2,0,0.3-0.1   c0.1,0,0.2-0.1,0.4-0.1c0.7,0,0.9,0.5,0.9,1.1c0,0.8-0.3,1.4-1.2,1.4c-0.9,0-1.7-0.2-2.5-0.2c-0.8,0-1.2,0.2-1.9,0.2   c-0.4,0-0.8-0.3-0.8-1.4c0-0.9,0.3-1.1,0.6-1.1c0.1,0,0.2,0,0.2,0.1c0.1,0,0.2,0.1,0.2,0.1c0.2,0,0.3-0.3,0.3-1.4L195.2,8.7   L195.2,8.7z"/>
	<path d="M97.9,38.9c0,0.8-0.3,2.8,1,2.8c1.1,0,0.9-1.7,0.9-2.4c0-0.7-0.1-1.6,0.8-1.6c0.7,0,0.9,0.5,0.9,1.1c0,2,0,2.9-0.6,3.6   c-0.5,0.7-1.4,0.9-2.3,0.9c-1.3,0-2.4-0.6-2.7-1.9c-0.9,1.5-2.6,2-4.2,2c-1.1,0-2.2-0.2-3.1-0.8c-1.1-0.7-1.7-1.8-1.7-3.1   c0-1.5,0.6-2.6,1.8-3.3c1.1-0.7,2.2-0.8,3.5-0.9c1.6-0.2,3.6-0.1,3.6-2c0-1.7-1.4-2.3-2.9-2.3c-0.7,0-1.4,0.2-2,0.6   c-0.2,0.1-0.6,0.4-0.6,0.7c0,0.1,0.6,0.2,0.6,1.1c0,0.8-0.7,1.2-1.4,1.2c-0.9,0-1.6-0.7-1.6-1.7c0-1.1,0.7-2,1.6-2.7   c0.9-0.6,2.3-1,3.4-1c1.2,0,2.6,0.3,3.6,1c1.3,1,1.5,2.4,1.4,4L97.9,38.9z M91.9,41.7c1.2,0,2.5-0.4,3.3-1.4   c0.6-0.8,0.7-1.6,0.7-2.5c0-0.5,0-1.1,0.1-1.7c-1,0.9-2.4,1-3.6,1.1c-1.4,0.1-3,0.5-3,2.3C89.2,41.1,90.5,41.7,91.9,41.7z"/>
	<path d="M115.4,38.9c0,0.8-0.3,2.8,1,2.8c1.1,0,0.9-1.7,0.9-2.4c0-0.7-0.1-1.6,0.8-1.6c0.7,0,0.9,0.5,0.9,1.1c0,2,0,2.9-0.6,3.6   c-0.5,0.7-1.4,0.9-2.3,0.9c-1.3,0-2.4-0.6-2.7-1.9c-0.9,1.5-2.6,2-4.2,2c-1.1,0-2.2-0.2-3.1-0.8c-1.1-0.7-1.7-1.8-1.7-3.1   c0-1.5,0.6-2.6,1.8-3.3c1.1-0.7,2.2-0.8,3.5-0.9c1.6-0.2,3.6-0.1,3.6-2c0-1.7-1.4-2.3-2.9-2.3c-0.7,0-1.4,0.2-2,0.6   c-0.2,0.1-0.6,0.4-0.6,0.7c0,0.1,0.6,0.2,0.6,1.1c0,0.8-0.7,1.2-1.4,1.2c-0.9,0-1.6-0.7-1.6-1.7c0-1.1,0.7-2,1.6-2.7   c0.9-0.6,2.3-1,3.4-1c1.2,0,2.6,0.3,3.6,1c1.3,1,1.5,2.4,1.4,4L115.4,38.9z M109.4,41.7c1.2,0,2.5-0.4,3.3-1.4   c0.6-0.8,0.7-1.6,0.7-2.5c0-0.5,0-1.1,0.1-1.7c-1,0.9-2.4,1-3.6,1.1c-1.4,0.1-3,0.5-3,2.3C106.7,41.1,108.1,41.7,109.4,41.7z"/>
	<path d="M124.7,33.4c0-1.8-0.2-2.2-0.8-2.2c-0.4,0-0.8,0.2-1.2,0.2c-0.5,0-0.9-0.4-0.9-0.9c0-0.5,0.5-1,1-1c0.6,0,0.7,0.3,1.4,0.3   c0.8,0,1-0.3,1.6-0.3c0.6,0,0.6,0.6,0.6,1.6h0.1c1-1.4,2.7-1.9,4.3-1.9c1.4,0,2.7,0.5,3.8,1.4c1.1,1,1.2,2.4,1.2,3.8v4.8   c0,1.6,0.2,2.2,0.8,2.2c0.4,0,0.8-0.2,1.2-0.2c0.5,0,0.9,0.4,0.9,0.9c0,0.6-0.4,0.9-1.1,0.9c-0.9,0-1.5-0.3-2.6-0.3   c-1.3,0-1.9,0.3-2.8,0.3c-0.7,0-1.1-0.3-1.1-0.9c0-0.5,0.4-0.9,0.9-0.9c0.4,0,0.8,0.2,1.2,0.2c0.6,0,0.8-0.6,0.8-2.2v-3.8   c0-1.7,0-2.2-0.4-3c-0.5-1-1.7-1.4-2.8-1.4c-1.2,0-2.5,0.5-3.2,1.5c-0.3,0.5-0.7,1.1-0.7,3.7v3.1c0,1.6,0.2,2.2,0.8,2.2   c0.4,0,0.8-0.2,1.2-0.2c0.5,0,0.9,0.4,0.9,0.9c0,0.6-0.4,1-1.1,1c-0.9,0-1.5-0.3-2.7-0.3c-1.3,0-1.8,0.3-2.8,0.3   c-0.7,0-1.1-0.4-1.1-1c0-0.5,0.4-0.9,0.9-0.9c0.4,0,0.8,0.2,1.2,0.2c0.7,0,0.8-0.6,0.8-2.2L124.7,33.4L124.7,33.4z"/>
	<path d="M164,26.7h-6.2c-2.2,0-3.2,0.3-3.2,2.8c0,0.6,0.1,1.2,0.1,1.8c0,0.7-0.4,1.1-1,1.1c-0.8,0-1-0.5-1-1.2   c0-0.9,0.2-1.7,0.2-2.5c0-0.8-0.2-1.5-0.2-2.3c0-0.8,0.5-1.3,1.5-1.3h10.5c1.7,0,2,0.4,2,1.3c0,0.5,0,0.6-0.8,1.5l-11.5,13.4h6.3   c0.8,0,2.1,0,2.9-0.2c1-0.3,1.2-1.1,1.2-2c0-0.8-0.2-1.5-0.2-2.3c0-0.7,0.4-1.1,1-1.1c0.8,0,1,0.5,1,1.2c0,0.9-0.2,1.7-0.2,2.5   c0,0.8,0.2,1.5,0.2,2.3c0,0.9-0.6,1.3-1.5,1.3h-10.8c-1.7,0-2.1-0.5-2.1-1.5c0-0.6,0.1-0.9,0.8-1.8L164,26.7z"/>
	<path d="M172.3,36.6c-0.1,2.7,1.3,5.1,4.2,5.1c1.8,0,3.1-0.9,3.6-2.6c0.2-0.5,0.3-1.1,1-1.1c0.6,0,1,0.4,1,1c0,1.1-0.8,2.3-1.5,3   c-1.1,1-2.8,1.5-4.2,1.5c-4.1,0-6.2-3-6.2-6.9c0-1.8,0.4-3.7,1.5-5.1c1.2-1.5,2.9-2.3,4.8-2.3c3.5,0,5.9,2.5,5.9,6   c0,1.3,0,1.4-1.3,1.4L172.3,36.6L172.3,36.6z M180.2,34.7c-0.1-2.1-1.4-3.8-3.7-3.8c-2.2,0-3.8,1.6-4,3.8H180.2z"/>
	<path d="M187.9,36.6c-0.1,2.7,1.3,5.1,4.2,5.1c1.8,0,3.1-0.9,3.6-2.6c0.2-0.5,0.3-1.1,1-1.1c0.6,0,1,0.4,1,1c0,1.1-0.8,2.3-1.5,3   c-1.1,1-2.8,1.5-4.2,1.5c-4.1,0-6.2-3-6.2-6.9c0-1.8,0.4-3.7,1.5-5.1c1.2-1.5,2.9-2.3,4.8-2.3c3.5,0,5.9,2.5,5.9,6   c0,1.3,0,1.4-1.3,1.4L187.9,36.6L187.9,36.6z M195.8,34.7c-0.1-2.1-1.4-3.8-3.7-3.8c-2.2,0-3.8,1.6-4,3.8H195.8z"/>
</g>
</svg>